<svg width="62" height="13" fill="none" xmlns="http://www.w3.org/2000/svg"><path d="M4.91 12.1c2.87 0 4.18-1.41 4.18-3.06 0-4.08-6.9-2.22-6.9-5.3 0-1.12.91-2.03 2.96-2.03 1 0 2.11.3 3.07.93l.4-.94c-.9-.63-2.2-1-3.47-1C2.3.7 1.02 2.13 1.02 3.78c0 4.14 6.9 2.25 6.9 5.32 0 1.1-.91 1.99-3 1.99a5.5 5.5 0 0 1-3.7-1.36l-.47.91c.83.86 2.48 1.46 4.16 1.46Zm11.62 0c1.65 0 3.12-.56 4.11-1.65l-.75-.75a4.4 4.4 0 0 1-3.31 1.34 4.58 4.58 0 0 1-4.74-4.64 4.58 4.58 0 0 1 4.74-4.64c1.28 0 2.4.4 3.31 1.33l.75-.75A5.42 5.42 0 0 0 16.54.7c-3.37 0-5.86 2.42-5.86 5.7 0 3.28 2.5 5.7 5.85 5.7Zm14.72-.1h1.25L27.38.8h-1.17L21.1 12h1.24l1.34-3h6.24l1.34 3ZM24.1 8.05l2.69-6.02 2.69 6.02H24.1ZM42.55.8v9.09L35.33.8h-.97V12h1.18V2.91l7.2 9.09h.98V.8h-1.17ZM47.37 12h4.56c3.58 0 6-2.3 6-5.6s-2.42-5.6-6-5.6h-4.56V12Zm1.18-1.02V1.82h3.32c2.97 0 4.9 1.9 4.9 4.58 0 2.69-1.93 4.58-4.9 4.58h-3.32ZM60.6 12h1.18V.8H60.6V12Z" fill="#533738"/></svg>